<svg width="18" height="13" viewBox="0 0 18 13" fill="none" xmlns="http://www.w3.org/2000/svg">
<path fill-rule="evenodd" clip-rule="evenodd" d="M8.77052 3.10404C11.2576 3.10414 13.6496 4.02623 15.4521 5.67971C15.5879 5.80736 15.8048 5.80575 15.9385 5.6761L17.236 4.41263C17.3037 4.34687 17.3414 4.25779 17.3409 4.16511C17.3403 4.07243 17.3015 3.98379 17.233 3.91879C12.502 -0.455922 5.03829 -0.455922 0.307275 3.91879C0.238743 3.98374 0.199859 4.07235 0.199227 4.16504C0.198595 4.25772 0.236267 4.34682 0.303908 4.41263L1.60177 5.6761C1.73537 5.80595 1.95249 5.80756 2.08814 5.67971C3.89088 4.02612 6.28317 3.10403 8.77052 3.10404ZM8.76717 7.32431C10.1245 7.32423 11.4334 7.83597 12.4395 8.7601C12.5756 8.89125 12.7899 8.88841 12.9226 8.75369L14.2099 7.43438C14.2777 7.36518 14.3153 7.2713 14.3143 7.17375C14.3133 7.0762 14.2738 6.98312 14.2047 6.91533C11.1408 4.02448 6.3961 4.02448 3.33227 6.91533C3.26306 6.98312 3.22357 7.07625 3.22266 7.17383C3.22176 7.27141 3.2595 7.36528 3.32744 7.43438L4.61435 8.75369C4.747 8.88841 4.96136 8.89125 5.09745 8.7601C6.1029 7.83658 7.41074 7.32488 8.76717 7.32431ZM11.2916 10.1179C11.2935 10.2232 11.2565 10.3248 11.1892 10.3986L9.01249 12.8533C8.94868 12.9255 8.86169 12.9661 8.77092 12.9661C8.68015 12.9661 8.59316 12.9255 8.52935 12.8533L6.35232 10.3986C6.28507 10.3247 6.24808 10.2231 6.25007 10.1178C6.25206 10.0124 6.29287 9.91267 6.36286 9.84205C7.75296 8.52816 9.78888 8.52816 11.179 9.84205C11.2489 9.91272 11.2897 10.0125 11.2916 10.1179Z" fill="black"/>
</svg>
