<svg width="20" height="13" viewBox="0 0 20 13" fill="none" xmlns="http://www.w3.org/2000/svg">
<path fill-rule="evenodd" clip-rule="evenodd" d="M19.7 1.68205C19.7 1.04901 19.2224 0.535828 18.6333 0.535828H17.5667C16.9776 0.535828 16.5 1.04901 16.5 1.68205V11.616C16.5 12.2491 16.9776 12.7622 17.5667 12.7622H18.6333C19.2224 12.7622 19.7 12.2491 19.7 11.616V1.68205ZM12.2659 2.98111H13.3326C13.9217 2.98111 14.3992 3.50661 14.3992 4.15485V11.5885C14.3992 12.2367 13.9217 12.7622 13.3326 12.7622H12.2659C11.6768 12.7622 11.1992 12.2367 11.1992 11.5885V4.15485C11.1992 3.50661 11.6768 2.98111 12.2659 2.98111ZM7.93411 5.63016H6.86745C6.27834 5.63016 5.80078 6.16235 5.80078 6.81884V11.5736C5.80078 12.23 6.27834 12.7622 6.86745 12.7622H7.93411C8.52322 12.7622 9.00078 12.23 9.00078 11.5736V6.81884C9.00078 6.16235 8.52322 5.63016 7.93411 5.63016ZM2.63333 8.07545H1.56667C0.977563 8.07545 0.5 8.60004 0.5 9.24715V11.5905C0.5 12.2377 0.977563 12.7622 1.56667 12.7622H2.63333C3.22244 12.7622 3.7 12.2377 3.7 11.5905V9.24715C3.7 8.60004 3.22244 8.07545 2.63333 8.07545Z" fill="black"/>
</svg>
